# xmcd
#
# Track frame offsets:
#        150
#        18715
#        37716
#        55916
#        69072
#        86434
#        102045
#        119448
#        135194
#        149441
#        161729
#        181253
#        197770
#        207781
#        220912
#        233677
#        253960
#        271489
#        285169
#        298716
#        310971
#        330359
#        345605
#
# Disc length: 4789 seconds
#
# Revision: 2
# Processed by: cddbd v1.5.1PL2 Copyright (c) Steve Scherf et al.
# Submitted via: BonkEnc v1.0beta3
#
DISCID=4912b317
DTITLE=Various Artist - Песьні Свабоды
DYEAR=2006
DGENRE=Rock
TTITLE0=Палац - Сьпей мне
TTITLE1=Крама - Свабоды мне дай!
TTITLE2=Таварыш Маузэр - Брудная вада
TTITLE3=Жаба ў каляіне - Ужо даволі!
TTITLE4=Čyrvonym pa Biełamu - Nie Žadaju
TTITLE5=Кася Камоцкая - Мая краіна
TTITLE6=ZET - Радзіма-Свабода
TTITLE7=UltraВожык - Атлянтыда
TTITLE8=Postscriptum - Вольныя танцы
TTITLE9=Партызанская школа - Не!
TTITLE10=ULIS - Радыё Свабода
TTITLE11=Partyzone+Руся - Маё сэрца
TTITLE12=Narodny Albom - Край, ты мой край
TTITLE13=Splenetic+Шаман - Менталітэт
TTITLE14=Рэха - Чэ Гевара (live)
TTITLE15=Нестандартны Варыянт+IQ-48+Лявон Вольскі - Паветраны шар
TTITLE16=Easy Project - Нас не дагоняць
TTITLE17=ЗЬМЯЯ - Кідай зброю!
TTITLE18=Нейра Дзюбель - Беларусь перадусім!
TTITLE19=Тарпач - Чаго чакаць
TTITLE20=ТОДАР - Дзе мой край
TTITLE21=Мясцовы час - Я жыў!
TTITLE22=Новае Неба - Гэта мы!
EXTD=
EXTT0=
EXTT1=
EXTT2=
EXTT3=
EXTT4=
EXTT5=
EXTT6=
EXTT7=
EXTT8=
EXTT9=
EXTT10=
EXTT11=
EXTT12=
EXTT13=
EXTT14=
EXTT15=
EXTT16=
EXTT17=
EXTT18=
EXTT19=
EXTT20=
EXTT21=
EXTT22=
PLAYORDER=
